<svg xmlns="http://www.w3.org/2000/svg" xmlns:xlink="http://www.w3.org/1999/xlink" width="2000" zoomAndPan="magnify" viewBox="0 0 1500 1499.999933" height="2000" preserveAspectRatio="xMidYMid meet" version="1.0"><defs><filter x="0%" y="0%" width="100%" height="100%" id="bcbe8c3dd3"><feColorMatrix values="0 0 0 0 1 0 0 0 0 1 0 0 0 0 1 0 0 0 1 0" color-interpolation-filters="sRGB"/></filter><g/><clipPath id="8b32104ccc"><path d="M 480 1.015625 L 1095.542969 1.015625 L 1095.542969 223 L 480 223 Z M 480 1.015625 " clip-rule="nonzero"/></clipPath><clipPath id="0a0a8302a0"><path d="M 404.171875 203 L 1017 203 L 1017 427.152344 L 404.171875 427.152344 Z M 404.171875 203 " clip-rule="nonzero"/></clipPath><clipPath id="d20e844f1b"><path d="M 0 0.285156 L 1500 0.285156 L 1500 1161 L 0 1161 Z M 0 0.285156 " clip-rule="nonzero"/></clipPath><clipPath id="8e3f0cf1cc"><path d="M 0 0.285156 L 1500 0.285156 L 1500 1161 L 0 1161 Z M 0 0.285156 " clip-rule="nonzero"/></clipPath><clipPath id="d0d4bc3e90"><path d="M 0 40.746094 L 1500 40.746094 L 1500 1161 L 0 1161 Z M 0 40.746094 " clip-rule="nonzero"/></clipPath><linearGradient x1="129.75" gradientTransform="matrix(5.77796, 0, 0, 5.771423, 1.69789, 448.456736)" y1="-70.642995" x2="129.75" gradientUnits="userSpaceOnUse" y2="123.460559" id="a99177bb7f"><stop stop-opacity="1" stop-color="rgb(18.818665%, 60.389709%, 92.939758%)" offset="0"/><stop stop-opacity="1" stop-color="rgb(18.818665%, 60.389709%, 92.939758%)" offset="0.25"/><stop stop-opacity="1" stop-color="rgb(18.818665%, 60.389709%, 92.939758%)" offset="0.375"/><stop stop-opacity="1" stop-color="rgb(18.818665%, 60.389709%, 92.939758%)" offset="0.390625"/><stop stop-opacity="1" stop-color="rgb(18.818665%, 60.389709%, 92.939758%)" offset="0.398438"/><stop stop-opacity="1" stop-color="rgb(18.635559%, 59.585571%, 91.836548%)" offset="0.402344"/><stop stop-opacity="1" stop-color="rgb(18.453979%, 58.781433%, 90.734863%)" offset="0.40625"/><stop stop-opacity="1" stop-color="rgb(18.225098%, 57.774353%, 89.353943%)" offset="0.410156"/><stop stop-opacity="1" stop-color="rgb(17.996216%, 56.768799%, 87.974548%)" offset="0.414062"/><stop stop-opacity="1" stop-color="rgb(17.767334%, 55.761719%, 86.593628%)" offset="0.417969"/><stop stop-opacity="1" stop-color="rgb(17.539978%, 54.756165%, 85.214233%)" offset="0.421875"/><stop stop-opacity="1" stop-color="rgb(17.311096%, 53.749084%, 83.833313%)" offset="0.425781"/><stop stop-opacity="1" stop-color="rgb(17.082214%, 52.74353%, 82.453918%)" offset="0.429688"/><stop stop-opacity="1" stop-color="rgb(16.853333%, 51.73645%, 81.074524%)" offset="0.433594"/><stop stop-opacity="1" stop-color="rgb(16.624451%, 50.730896%, 79.695129%)" offset="0.4375"/><stop stop-opacity="1" stop-color="rgb(16.395569%, 49.723816%, 78.314209%)" offset="0.441406"/><stop stop-opacity="1" stop-color="rgb(16.168213%, 48.718262%, 76.934814%)" offset="0.445312"/><stop stop-opacity="1" stop-color="rgb(15.939331%, 47.711182%, 75.553894%)" offset="0.449219"/><stop stop-opacity="1" stop-color="rgb(15.710449%, 46.705627%, 74.1745%)" offset="0.453125"/><stop stop-opacity="1" stop-color="rgb(15.481567%, 45.698547%, 72.793579%)" offset="0.457031"/><stop stop-opacity="1" stop-color="rgb(15.252686%, 44.692993%, 71.414185%)" offset="0.460938"/><stop stop-opacity="1" stop-color="rgb(15.023804%, 43.685913%, 70.03479%)" offset="0.464844"/><stop stop-opacity="1" stop-color="rgb(14.796448%, 42.680359%, 68.655396%)" offset="0.46875"/><stop stop-opacity="1" stop-color="rgb(14.567566%, 41.673279%, 67.274475%)" offset="0.472656"/><stop stop-opacity="1" stop-color="rgb(14.338684%, 40.667725%, 65.895081%)" offset="0.476562"/><stop stop-opacity="1" stop-color="rgb(14.109802%, 39.660645%, 64.51416%)" offset="0.480469"/><stop stop-opacity="1" stop-color="rgb(13.88092%, 38.65509%, 63.134766%)" offset="0.484375"/><stop stop-opacity="1" stop-color="rgb(13.652039%, 37.64801%, 61.753845%)" offset="0.488281"/><stop stop-opacity="1" stop-color="rgb(13.424683%, 36.642456%, 60.374451%)" offset="0.492188"/><stop stop-opacity="1" stop-color="rgb(13.195801%, 35.635376%, 58.995056%)" offset="0.496094"/><stop stop-opacity="1" stop-color="rgb(12.966919%, 34.629822%, 57.615662%)" offset="0.5"/><stop stop-opacity="1" stop-color="rgb(12.738037%, 33.622742%, 56.234741%)" offset="0.503906"/><stop stop-opacity="1" stop-color="rgb(12.509155%, 32.617188%, 54.855347%)" offset="0.507812"/><stop stop-opacity="1" stop-color="rgb(12.280273%, 31.610107%, 53.474426%)" offset="0.511719"/><stop stop-opacity="1" stop-color="rgb(12.052917%, 30.604553%, 52.095032%)" offset="0.515625"/><stop stop-opacity="1" stop-color="rgb(11.824036%, 29.597473%, 50.715637%)" offset="0.519531"/><stop stop-opacity="1" stop-color="rgb(11.595154%, 28.591919%, 49.336243%)" offset="0.523438"/><stop stop-opacity="1" stop-color="rgb(11.366272%, 27.584839%, 47.955322%)" offset="0.527344"/><stop stop-opacity="1" stop-color="rgb(11.13739%, 26.579285%, 46.575928%)" offset="0.53125"/><stop stop-opacity="1" stop-color="rgb(10.908508%, 25.572205%, 45.195007%)" offset="0.535156"/><stop stop-opacity="1" stop-color="rgb(10.681152%, 24.56665%, 43.815613%)" offset="0.539062"/><stop stop-opacity="1" stop-color="rgb(10.452271%, 23.561096%, 42.434692%)" offset="0.542969"/><stop stop-opacity="1" stop-color="rgb(10.223389%, 22.555542%, 41.055298%)" offset="0.546875"/><stop stop-opacity="1" stop-color="rgb(9.994507%, 21.548462%, 39.675903%)" offset="0.550781"/><stop stop-opacity="1" stop-color="rgb(9.765625%, 20.542908%, 38.296509%)" offset="0.554688"/><stop stop-opacity="1" stop-color="rgb(9.536743%, 19.535828%, 36.915588%)" offset="0.558594"/><stop stop-opacity="1" stop-color="rgb(9.309387%, 18.530273%, 35.536194%)" offset="0.5625"/><stop stop-opacity="1" stop-color="rgb(9.080505%, 17.523193%, 34.155273%)" offset="0.566406"/><stop stop-opacity="1" stop-color="rgb(8.851624%, 16.517639%, 32.775879%)" offset="0.570312"/><stop stop-opacity="1" stop-color="rgb(8.622742%, 15.510559%, 31.394958%)" offset="0.574219"/><stop stop-opacity="1" stop-color="rgb(8.39386%, 14.505005%, 30.015564%)" offset="0.578125"/><stop stop-opacity="1" stop-color="rgb(8.164978%, 13.497925%, 28.636169%)" offset="0.582031"/><stop stop-opacity="1" stop-color="rgb(7.936096%, 12.492371%, 27.256775%)" offset="0.585938"/><stop stop-opacity="1" stop-color="rgb(7.707214%, 11.485291%, 25.875854%)" offset="0.589844"/><stop stop-opacity="1" stop-color="rgb(7.479858%, 10.479736%, 24.49646%)" offset="0.59375"/><stop stop-opacity="1" stop-color="rgb(7.269287%, 9.553528%, 23.226929%)" offset="0.597656"/><stop stop-opacity="1" stop-color="rgb(7.058716%, 8.628845%, 21.958923%)" offset="0.601562"/><stop stop-opacity="1" stop-color="rgb(7.058716%, 8.628845%, 21.958923%)" offset="0.609375"/><stop stop-opacity="1" stop-color="rgb(7.058716%, 8.628845%, 21.958923%)" offset="0.625"/><stop stop-opacity="1" stop-color="rgb(7.058716%, 8.628845%, 21.958923%)" offset="0.75"/><stop stop-opacity="1" stop-color="rgb(7.058716%, 8.628845%, 21.958923%)" offset="1"/></linearGradient><clipPath id="07350ea6e6"><rect x="0" width="1500" y="0" height="1161"/></clipPath><clipPath id="53c8ab0cc6"><path d="M 0 0.285156 L 1500 0.285156 L 1500 1161 L 0 1161 Z M 0 0.285156 " clip-rule="nonzero"/></clipPath><clipPath id="102b340ff8"><rect x="0" width="1500" y="0" height="1161"/></clipPath><clipPath id="b28b172c43"><rect x="0" width="1500" y="0" height="1161"/></clipPath><mask id="079b0db886"><g filter="url(#bcbe8c3dd3)"><g transform="matrix(1, 0, 0, 1, 0, 0.000000000000113687)"><g clip-path="url(#b28b172c43)"><g clip-path="url(#53c8ab0cc6)"><g transform="matrix(1, 0, 0, 1, 0, 0.000000000000113687)"><g clip-path="url(#102b340ff8)"><g fill="#000000" fill-opacity="1"><g transform="translate(343.002815, 659.198733)"><g><path d="M 56.984375 -43.078125 C 56.984375 -42.179688 57.4375 -41.734375 58.34375 -41.734375 L 63.71875 -41.734375 C 69.851562 -41.734375 74.566406 -42.554688 77.859375 -44.203125 C 81.148438 -45.847656 83.539062 -48.914062 85.03125 -53.40625 C 85.488281 -54.601562 85.828125 -55.796875 86.046875 -56.984375 C 86.273438 -58.179688 86.460938 -59.601562 86.609375 -61.25 C 86.753906 -62.894531 86.863281 -64.914062 86.9375 -67.3125 C 87.019531 -69.707031 87.0625 -72.695312 87.0625 -76.28125 C 87.0625 -79.875 87.019531 -82.828125 86.9375 -85.140625 C 86.863281 -87.460938 86.753906 -89.484375 86.609375 -91.203125 C 86.460938 -92.921875 86.273438 -94.378906 86.046875 -95.578125 C 85.828125 -96.773438 85.488281 -97.972656 85.03125 -99.171875 C 83.539062 -103.660156 81.148438 -106.726562 77.859375 -108.375 C 74.566406 -110.019531 69.851562 -110.84375 63.71875 -110.84375 L 58.34375 -110.84375 C 57.4375 -110.84375 56.984375 -110.394531 56.984375 -109.5 Z M 9.875 -150.328125 C 9.875 -151.828125 10.617188 -152.578125 12.109375 -152.578125 L 73.375 -152.578125 C 87.28125 -152.578125 99.171875 -149.734375 109.046875 -144.046875 C 118.921875 -138.359375 125.875 -129.382812 129.90625 -117.125 C 130.8125 -114.425781 131.5625 -111.726562 132.15625 -109.03125 C 132.75 -106.34375 133.234375 -103.46875 133.609375 -100.40625 C 133.984375 -97.34375 134.242188 -93.863281 134.390625 -89.96875 C 134.546875 -86.082031 134.625 -81.519531 134.625 -76.28125 C 134.625 -71.050781 134.546875 -66.488281 134.390625 -62.59375 C 134.242188 -58.707031 133.984375 -55.226562 133.609375 -52.15625 C 133.234375 -49.09375 132.75 -46.210938 132.15625 -43.515625 C 131.5625 -40.828125 130.8125 -38.140625 129.90625 -35.453125 C 125.875 -23.179688 118.921875 -14.203125 109.046875 -8.515625 C 99.171875 -2.835938 87.28125 0 73.375 0 L 12.109375 0 C 10.617188 0 9.875 -0.75 9.875 -2.25 Z M 9.875 -150.328125 "/></g></g></g><g fill="#000000" fill-opacity="1"><g transform="translate(485.454267, 659.198733)"><g><path d="M 9.875 -150.328125 C 9.875 -151.828125 10.617188 -152.578125 12.109375 -152.578125 L 54.75 -152.578125 C 56.238281 -152.578125 56.984375 -151.828125 56.984375 -150.328125 L 56.984375 -2.25 C 56.984375 -0.75 56.238281 0 54.75 0 L 12.109375 0 C 10.617188 0 9.875 -0.75 9.875 -2.25 Z M 9.875 -150.328125 "/></g></g></g><g fill="#000000" fill-opacity="1"><g transform="translate(552.305533, 659.198733)"><g><path d="M 11.4375 -35.234375 C 10.394531 -38.367188 9.570312 -41.394531 8.96875 -44.3125 C 8.375 -47.226562 7.890625 -50.253906 7.515625 -53.390625 C 7.140625 -56.535156 6.914062 -59.941406 6.84375 -63.609375 C 6.769531 -67.273438 6.734375 -71.5 6.734375 -76.28125 C 6.734375 -81.070312 6.769531 -85.300781 6.84375 -88.96875 C 6.914062 -92.632812 7.140625 -96.035156 7.515625 -99.171875 C 7.890625 -102.316406 8.375 -105.347656 8.96875 -108.265625 C 9.570312 -111.179688 10.394531 -114.207031 11.4375 -117.34375 C 13.53125 -123.78125 16.484375 -129.351562 20.296875 -134.0625 C 24.117188 -138.769531 28.609375 -142.695312 33.765625 -145.84375 C 38.929688 -148.988281 44.613281 -151.34375 50.8125 -152.90625 C 57.019531 -154.476562 63.566406 -155.265625 70.453125 -155.265625 C 84.367188 -155.265625 96.035156 -152.492188 105.453125 -146.953125 C 114.878906 -141.421875 122.0625 -133.347656 127 -122.734375 C 127.894531 -120.941406 127.519531 -119.671875 125.875 -118.921875 L 90.875 -104.109375 C 89.226562 -103.359375 87.957031 -103.65625 87.0625 -105 C 84.96875 -108 82.722656 -110.171875 80.328125 -111.515625 C 77.929688 -112.859375 74.710938 -113.53125 70.671875 -113.53125 C 63.046875 -113.53125 58.1875 -110.238281 56.09375 -103.65625 C 55.644531 -102.457031 55.304688 -101.109375 55.078125 -99.609375 C 54.859375 -98.117188 54.707031 -96.328125 54.625 -94.234375 C 54.550781 -92.140625 54.476562 -89.632812 54.40625 -86.71875 C 54.332031 -83.800781 54.296875 -80.320312 54.296875 -76.28125 C 54.296875 -68.207031 54.445312 -62.1875 54.75 -58.21875 C 55.050781 -54.257812 55.570312 -51.082031 56.3125 -48.6875 C 58.40625 -42.257812 63.71875 -39.046875 72.25 -39.046875 C 76.289062 -39.046875 79.65625 -39.753906 82.34375 -41.171875 C 85.039062 -42.585938 86.757812 -44.570312 87.5 -47.125 C 87.945312 -48.46875 88.171875 -49.8125 88.171875 -51.15625 C 88.171875 -52.207031 87.722656 -52.734375 86.828125 -52.734375 L 75.171875 -52.734375 C 73.671875 -52.734375 72.921875 -53.476562 72.921875 -54.96875 L 72.921875 -84.359375 C 72.921875 -85.859375 73.671875 -86.609375 75.171875 -86.609375 L 131.9375 -86.609375 C 133.425781 -86.609375 134.171875 -85.859375 134.171875 -84.359375 L 134.171875 -73.8125 C 134.171875 -65.738281 133.867188 -58.929688 133.265625 -53.390625 C 132.671875 -47.859375 131.550781 -42.476562 129.90625 -37.25 C 125.570312 -24.082031 118.207031 -14.132812 107.8125 -7.40625 C 97.414062 -0.675781 84.960938 2.6875 70.453125 2.6875 C 63.566406 2.6875 57.019531 1.898438 50.8125 0.328125 C 44.613281 -1.234375 38.929688 -3.582031 33.765625 -6.71875 C 28.609375 -9.863281 24.117188 -13.789062 20.296875 -18.5 C 16.484375 -23.21875 13.53125 -28.796875 11.4375 -35.234375 Z M 11.4375 -35.234375 "/></g></g></g><g fill="#000000" fill-opacity="1"><g transform="translate(693.186676, 659.198733)"><g><path d="M 9.875 -150.328125 C 9.875 -151.828125 10.617188 -152.578125 12.109375 -152.578125 L 54.75 -152.578125 C 56.238281 -152.578125 56.984375 -151.828125 56.984375 -150.328125 L 56.984375 -2.25 C 56.984375 -0.75 56.238281 0 54.75 0 L 12.109375 0 C 10.617188 0 9.875 -0.75 9.875 -2.25 Z M 9.875 -150.328125 "/></g></g></g><g fill="#000000" fill-opacity="1"><g transform="translate(760.037942, 659.198733)"><g><path d="M 43.296875 0 C 41.804688 0 41.0625 -0.75 41.0625 -2.25 L 41.0625 -109.5 C 41.0625 -110.394531 40.613281 -110.84375 39.71875 -110.84375 L 3.59375 -110.84375 C 2.09375 -110.84375 1.34375 -111.585938 1.34375 -113.078125 L 1.34375 -150.328125 C 1.34375 -151.828125 2.09375 -152.578125 3.59375 -152.578125 L 125.65625 -152.578125 C 127.144531 -152.578125 127.890625 -151.828125 127.890625 -150.328125 L 127.890625 -113.078125 C 127.890625 -111.585938 127.144531 -110.84375 125.65625 -110.84375 L 89.53125 -110.84375 C 88.625 -110.84375 88.171875 -110.394531 88.171875 -109.5 L 88.171875 -2.25 C 88.171875 -0.75 87.425781 0 85.9375 0 Z M 43.296875 0 "/></g></g></g><g fill="#000000" fill-opacity="1"><g transform="translate(872.649847, 659.198733)"><g><path d="M 91.328125 -60.578125 L 80.109375 -101.1875 L 79.421875 -101.1875 L 67.765625 -60.578125 Z M 54.296875 -150.328125 C 54.742188 -151.828125 55.71875 -152.578125 57.21875 -152.578125 L 102.984375 -152.578125 C 104.484375 -152.578125 105.457031 -151.828125 105.90625 -150.328125 L 157.515625 -2.25 C 157.960938 -0.75 157.4375 0 155.9375 0 L 110.390625 0 C 108.898438 0 107.925781 -0.75 107.46875 -2.25 L 101.859375 -22.21875 L 56.984375 -22.21875 L 51.375 -2.25 C 50.925781 -0.75 49.957031 0 48.46875 0 L 2.921875 0 C 1.421875 0 0.894531 -0.75 1.34375 -2.25 Z M 54.296875 -150.328125 "/></g></g></g><g fill="#000000" fill-opacity="1"><g transform="translate(1031.477566, 659.198733)"><g><path d="M 9.875 -150.328125 C 9.875 -151.828125 10.617188 -152.578125 12.109375 -152.578125 L 54.75 -152.578125 C 56.238281 -152.578125 56.984375 -151.828125 56.984375 -150.328125 L 56.984375 -43.078125 C 56.984375 -42.179688 57.4375 -41.734375 58.34375 -41.734375 L 119.59375 -41.734375 C 121.082031 -41.734375 121.828125 -40.984375 121.828125 -39.484375 L 121.828125 -2.25 C 121.828125 -0.75 121.082031 0 119.59375 0 L 12.109375 0 C 10.617188 0 9.875 -0.75 9.875 -2.25 Z M 9.875 -150.328125 "/></g></g></g></g></g></g></g></g></g></mask><clipPath id="a80ddaf9fb"><path d="M 0 40.746094 L 1500 40.746094 L 1500 1161 L 0 1161 Z M 0 40.746094 " clip-rule="nonzero"/></clipPath><clipPath id="1719f878bd"><rect x="0" width="1500" y="0" height="1161"/></clipPath><clipPath id="47f542080f"><rect x="0" width="1500" y="0" height="1161"/></clipPath><clipPath id="523164b306"><rect x="0" width="1500" y="0" height="1161"/></clipPath><clipPath id="89b43996df"><path d="M 0.554688 0.386719 L 1153.988281 0.386719 L 1153.988281 583.886719 L 0.554688 583.886719 Z M 0.554688 0.386719 " clip-rule="nonzero"/></clipPath><clipPath id="7ec5a8f1b6"><path d="M 0.554688 0.386719 L 1153.988281 0.386719 L 1153.988281 583.886719 L 0.554688 583.886719 Z M 0.554688 0.386719 " clip-rule="nonzero"/></clipPath><clipPath id="a392d12fae"><path d="M 7.363281 20.742188 L 1147.175781 20.742188 L 1147.175781 563.535156 L 7.363281 563.535156 Z M 7.363281 20.742188 " clip-rule="nonzero"/></clipPath><linearGradient x1="53.140999" gradientTransform="matrix(6.76792, 0, 0, 6.818913, 217.616161, 217.13286)" y1="-28.801001" x2="53.140999" gradientUnits="userSpaceOnUse" y2="50.799989" id="ee9d9e90a8"><stop stop-opacity="1" stop-color="rgb(18.818665%, 60.389709%, 92.939758%)" offset="0"/><stop stop-opacity="1" stop-color="rgb(18.818665%, 60.389709%, 92.939758%)" offset="0.25"/><stop stop-opacity="1" stop-color="rgb(18.818665%, 60.389709%, 92.939758%)" offset="0.375"/><stop stop-opacity="1" stop-color="rgb(18.818665%, 60.389709%, 92.939758%)" offset="0.390625"/><stop stop-opacity="1" stop-color="rgb(18.818665%, 60.389709%, 92.939758%)" offset="0.398438"/><stop stop-opacity="1" stop-color="rgb(18.621826%, 59.519958%, 91.748047%)" offset="0.402344"/><stop stop-opacity="1" stop-color="rgb(18.424988%, 58.651733%, 90.557861%)" offset="0.40625"/><stop stop-opacity="1" stop-color="rgb(18.196106%, 57.646179%, 89.178467%)" offset="0.410156"/><stop stop-opacity="1" stop-color="rgb(17.967224%, 56.640625%, 87.799072%)" offset="0.414062"/><stop stop-opacity="1" stop-color="rgb(17.738342%, 55.635071%, 86.419678%)" offset="0.417969"/><stop stop-opacity="1" stop-color="rgb(17.510986%, 54.629517%, 85.040283%)" offset="0.421875"/><stop stop-opacity="1" stop-color="rgb(17.282104%, 53.622437%, 83.660889%)" offset="0.425781"/><stop stop-opacity="1" stop-color="rgb(17.053223%, 52.616882%, 82.281494%)" offset="0.429687"/><stop stop-opacity="1" stop-color="rgb(16.824341%, 51.611328%, 80.9021%)" offset="0.433594"/><stop stop-opacity="1" stop-color="rgb(16.596985%, 50.605774%, 79.522705%)" offset="0.4375"/><stop stop-opacity="1" stop-color="rgb(16.368103%, 49.598694%, 78.143311%)" offset="0.441406"/><stop stop-opacity="1" stop-color="rgb(16.139221%, 48.59314%, 76.763916%)" offset="0.445312"/><stop stop-opacity="1" stop-color="rgb(15.910339%, 47.587585%, 75.384521%)" offset="0.449219"/><stop stop-opacity="1" stop-color="rgb(15.681458%, 46.582031%, 74.005127%)" offset="0.453125"/><stop stop-opacity="1" stop-color="rgb(15.452576%, 45.574951%, 72.625732%)" offset="0.457031"/><stop stop-opacity="1" stop-color="rgb(15.22522%, 44.569397%, 71.246338%)" offset="0.460938"/><stop stop-opacity="1" stop-color="rgb(14.996338%, 43.563843%, 69.866943%)" offset="0.464844"/><stop stop-opacity="1" stop-color="rgb(14.767456%, 42.558289%, 68.487549%)" offset="0.46875"/><stop stop-opacity="1" stop-color="rgb(14.538574%, 41.551208%, 67.106628%)" offset="0.472656"/><stop stop-opacity="1" stop-color="rgb(14.311218%, 40.545654%, 65.727234%)" offset="0.476562"/><stop stop-opacity="1" stop-color="rgb(14.082336%, 39.5401%, 64.347839%)" offset="0.480469"/><stop stop-opacity="1" stop-color="rgb(13.853455%, 38.534546%, 62.968445%)" offset="0.484375"/><stop stop-opacity="1" stop-color="rgb(13.624573%, 37.527466%, 61.58905%)" offset="0.488281"/><stop stop-opacity="1" stop-color="rgb(13.397217%, 36.521912%, 60.209656%)" offset="0.492188"/><stop stop-opacity="1" stop-color="rgb(13.168335%, 35.516357%, 58.830261%)" offset="0.496094"/><stop stop-opacity="1" stop-color="rgb(12.939453%, 34.510803%, 57.450867%)" offset="0.5"/><stop stop-opacity="1" stop-color="rgb(12.710571%, 33.505249%, 56.071472%)" offset="0.503906"/><stop stop-opacity="1" stop-color="rgb(12.483215%, 32.499695%, 54.692078%)" offset="0.507812"/><stop stop-opacity="1" stop-color="rgb(12.254333%, 31.492615%, 53.312683%)" offset="0.511719"/><stop stop-opacity="1" stop-color="rgb(12.025452%, 30.487061%, 51.933289%)" offset="0.515625"/><stop stop-opacity="1" stop-color="rgb(11.79657%, 29.481506%, 50.553894%)" offset="0.519531"/><stop stop-opacity="1" stop-color="rgb(11.567688%, 28.475952%, 49.1745%)" offset="0.523438"/><stop stop-opacity="1" stop-color="rgb(11.338806%, 27.468872%, 47.795105%)" offset="0.527344"/><stop stop-opacity="1" stop-color="rgb(11.11145%, 26.463318%, 46.41571%)" offset="0.53125"/><stop stop-opacity="1" stop-color="rgb(10.882568%, 25.457764%, 45.036316%)" offset="0.535156"/><stop stop-opacity="1" stop-color="rgb(10.653687%, 24.452209%, 43.656921%)" offset="0.539062"/><stop stop-opacity="1" stop-color="rgb(10.424805%, 23.445129%, 42.277527%)" offset="0.542969"/><stop stop-opacity="1" stop-color="rgb(10.197449%, 22.439575%, 40.898132%)" offset="0.546875"/><stop stop-opacity="1" stop-color="rgb(9.968567%, 21.434021%, 39.518738%)" offset="0.550781"/><stop stop-opacity="1" stop-color="rgb(9.739685%, 20.428467%, 38.139343%)" offset="0.554688"/><stop stop-opacity="1" stop-color="rgb(9.510803%, 19.421387%, 36.759949%)" offset="0.558594"/><stop stop-opacity="1" stop-color="rgb(9.283447%, 18.415833%, 35.380554%)" offset="0.5625"/><stop stop-opacity="1" stop-color="rgb(9.054565%, 17.410278%, 34.00116%)" offset="0.566406"/><stop stop-opacity="1" stop-color="rgb(8.825684%, 16.404724%, 32.621765%)" offset="0.570312"/><stop stop-opacity="1" stop-color="rgb(8.596802%, 15.39917%, 31.242371%)" offset="0.574219"/><stop stop-opacity="1" stop-color="rgb(8.369446%, 14.393616%, 29.862976%)" offset="0.578125"/><stop stop-opacity="1" stop-color="rgb(8.140564%, 13.386536%, 28.483582%)" offset="0.582031"/><stop stop-opacity="1" stop-color="rgb(7.911682%, 12.380981%, 27.104187%)" offset="0.585938"/><stop stop-opacity="1" stop-color="rgb(7.6828%, 11.375427%, 25.724792%)" offset="0.589844"/><stop stop-opacity="1" stop-color="rgb(7.453918%, 10.369873%, 24.345398%)" offset="0.59375"/><stop stop-opacity="1" stop-color="rgb(7.255554%, 9.498596%, 23.152161%)" offset="0.597656"/><stop stop-opacity="1" stop-color="rgb(7.058716%, 8.628845%, 21.958923%)" offset="0.601562"/><stop stop-opacity="1" stop-color="rgb(7.058716%, 8.628845%, 21.958923%)" offset="0.609375"/><stop stop-opacity="1" stop-color="rgb(7.058716%, 8.628845%, 21.958923%)" offset="0.625"/><stop stop-opacity="1" stop-color="rgb(7.058716%, 8.628845%, 21.958923%)" offset="0.75"/><stop stop-opacity="1" stop-color="rgb(7.058716%, 8.628845%, 21.958923%)" offset="1"/></linearGradient><clipPath id="f9342ffca0"><rect x="0" width="1154" y="0" height="584"/></clipPath><clipPath id="1b5334ec27"><path d="M 0.554688 0.386719 L 1153.988281 0.386719 L 1153.988281 583.886719 L 0.554688 583.886719 Z M 0.554688 0.386719 " clip-rule="nonzero"/></clipPath><clipPath id="10c8db4214"><rect x="0" width="1154" y="0" height="584"/></clipPath><clipPath id="2e4ca930fa"><rect x="0" width="1154" y="0" height="584"/></clipPath><mask id="4d94d0df90"><g filter="url(#bcbe8c3dd3)"><g transform="matrix(1, 0, 0, 1, 0, 0.000000000000113687)"><g clip-path="url(#2e4ca930fa)"><g clip-path="url(#1b5334ec27)"><g transform="matrix(1, 0, 0, 1, 0, 0.000000000000113687)"><g clip-path="url(#10c8db4214)"><g fill="#000000" fill-opacity="1"><g transform="translate(222.652963, 319.277075)"><g><path d="M 22.875 -13.484375 C 22.875 -13.054688 23.085938 -12.84375 23.515625 -12.84375 L 35.59375 -12.84375 C 38.832031 -12.84375 41.296875 -13.648438 42.984375 -15.265625 C 44.671875 -16.878906 45.515625 -19.125 45.515625 -22 C 45.515625 -24.8125 44.671875 -27.039062 42.984375 -28.6875 C 41.296875 -30.34375 38.832031 -31.171875 35.59375 -31.171875 L 23.515625 -31.171875 C 23.085938 -31.171875 22.875 -30.957031 22.875 -30.53125 Z M 34.734375 -43.359375 C 37.753906 -43.359375 40.109375 -44.113281 41.796875 -45.625 C 43.492188 -47.132812 44.34375 -49.257812 44.34375 -52 C 44.34375 -54.726562 43.492188 -56.828125 41.796875 -58.296875 C 40.109375 -59.773438 37.753906 -60.515625 34.734375 -60.515625 L 23.515625 -60.515625 C 23.085938 -60.515625 22.875 -60.300781 22.875 -59.875 L 22.875 -44.015625 C 22.875 -43.578125 23.085938 -43.359375 23.515625 -43.359375 Z M 7.015625 -72.28125 C 7.015625 -73 7.375 -73.359375 8.09375 -73.359375 L 36.671875 -73.359375 C 44.660156 -73.359375 50.5625 -71.554688 54.375 -67.953125 C 58.1875 -64.359375 60.09375 -59.648438 60.09375 -53.828125 C 60.09375 -49.796875 59.28125 -46.519531 57.65625 -44 C 56.039062 -41.488281 54.007812 -39.550781 51.5625 -38.1875 L 51.5625 -37.96875 C 52.78125 -37.539062 53.984375 -36.835938 55.171875 -35.859375 C 56.359375 -34.890625 57.398438 -33.6875 58.296875 -32.25 C 59.203125 -30.8125 59.941406 -29.175781 60.515625 -27.34375 C 61.085938 -25.507812 61.375 -23.515625 61.375 -21.359375 C 61.375 -14.097656 59.125 -8.722656 54.625 -5.234375 C 50.132812 -1.742188 43.898438 0 35.921875 0 L 8.09375 0 C 7.375 0 7.015625 -0.359375 7.015625 -1.078125 Z M 7.015625 -72.28125 "/></g></g></g><g fill="#000000" fill-opacity="1"><g transform="translate(322.94304, 319.277075)"><g><path d="M 7.015625 -72.28125 C 7.015625 -73 7.375 -73.359375 8.09375 -73.359375 L 21.796875 -73.359375 C 22.515625 -73.359375 22.875 -73 22.875 -72.28125 L 22.875 -1.078125 C 22.875 -0.359375 22.515625 0 21.796875 0 L 8.09375 0 C 7.375 0 7.015625 -0.359375 7.015625 -1.078125 Z M 7.015625 -72.28125 "/></g></g></g><g fill="#000000" fill-opacity="1"><g transform="translate(387.330361, 319.277075)"><g><path d="M 33.875 -12.84375 C 36.894531 -12.84375 39.375 -13.5625 41.3125 -15 C 43.257812 -16.4375 44.628906 -18.410156 45.421875 -20.921875 C 45.628906 -21.578125 45.804688 -22.316406 45.953125 -23.140625 C 46.097656 -23.960938 46.222656 -24.96875 46.328125 -26.15625 C 46.441406 -27.34375 46.515625 -28.800781 46.546875 -30.53125 C 46.585938 -32.257812 46.609375 -34.304688 46.609375 -36.671875 C 46.609375 -39.046875 46.585938 -41.097656 46.546875 -42.828125 C 46.515625 -44.554688 46.441406 -46.007812 46.328125 -47.1875 C 46.222656 -48.375 46.097656 -49.378906 45.953125 -50.203125 C 45.804688 -51.035156 45.628906 -51.773438 45.421875 -52.421875 C 44.628906 -54.941406 43.257812 -56.921875 41.3125 -58.359375 C 39.375 -59.796875 36.894531 -60.515625 33.875 -60.515625 C 30.851562 -60.515625 28.367188 -59.796875 26.421875 -58.359375 C 24.484375 -56.921875 23.117188 -54.941406 22.328125 -52.421875 C 22.109375 -51.773438 21.925781 -51.035156 21.78125 -50.203125 C 21.644531 -49.378906 21.519531 -48.375 21.40625 -47.1875 C 21.300781 -46.007812 21.226562 -44.554688 21.1875 -42.828125 C 21.15625 -41.097656 21.140625 -39.046875 21.140625 -36.671875 C 21.140625 -34.304688 21.15625 -32.257812 21.1875 -30.53125 C 21.226562 -28.800781 21.300781 -27.34375 21.40625 -26.15625 C 21.519531 -24.96875 21.644531 -23.960938 21.78125 -23.140625 C 21.925781 -22.316406 22.109375 -21.578125 22.328125 -20.921875 C 23.117188 -18.410156 24.484375 -16.4375 26.421875 -15 C 28.367188 -13.5625 30.851562 -12.84375 33.875 -12.84375 Z M 33.875 1.1875 C 27.46875 1.1875 21.875 -0.285156 17.09375 -3.234375 C 12.3125 -6.179688 8.988281 -10.640625 7.125 -16.609375 C 6.6875 -17.898438 6.34375 -19.15625 6.09375 -20.375 C 5.84375 -21.601562 5.644531 -22.972656 5.5 -24.484375 C 5.351562 -25.992188 5.242188 -27.71875 5.171875 -29.65625 C 5.097656 -31.601562 5.0625 -33.941406 5.0625 -36.671875 C 5.0625 -39.410156 5.097656 -41.75 5.171875 -43.6875 C 5.242188 -45.632812 5.351562 -47.359375 5.5 -48.859375 C 5.644531 -50.367188 5.84375 -51.734375 6.09375 -52.953125 C 6.34375 -54.179688 6.6875 -55.445312 7.125 -56.75 C 8.988281 -62.644531 12.3125 -67.082031 17.09375 -70.0625 C 21.875 -73.050781 27.46875 -74.546875 33.875 -74.546875 C 40.269531 -74.546875 45.859375 -73.050781 50.640625 -70.0625 C 55.429688 -67.082031 58.757812 -62.644531 60.625 -56.75 C 61.050781 -55.445312 61.390625 -54.179688 61.640625 -52.953125 C 61.898438 -51.734375 62.097656 -50.367188 62.234375 -48.859375 C 62.378906 -47.359375 62.488281 -45.632812 62.5625 -43.6875 C 62.632812 -41.75 62.671875 -39.410156 62.671875 -36.671875 C 62.671875 -33.941406 62.632812 -31.601562 62.5625 -29.65625 C 62.488281 -27.71875 62.378906 -25.992188 62.234375 -24.484375 C 62.097656 -22.972656 61.898438 -21.601562 61.640625 -20.375 C 61.390625 -19.15625 61.050781 -17.898438 60.625 -16.609375 C 58.757812 -10.640625 55.429688 -6.179688 50.640625 -3.234375 C 45.859375 -0.285156 40.269531 1.1875 33.875 1.1875 Z M 33.875 1.1875 "/></g></g></g><g fill="#000000" fill-opacity="1"><g transform="translate(489.561097, 319.277075)"><g><path d="M 5.609375 -22 C 4.890625 -22 4.53125 -22.359375 4.53125 -23.078125 L 4.53125 -34.09375 C 4.53125 -34.8125 4.890625 -35.171875 5.609375 -35.171875 L 36.671875 -35.171875 C 37.390625 -35.171875 37.75 -34.8125 37.75 -34.09375 L 37.75 -23.078125 C 37.75 -22.359375 37.390625 -22 36.671875 -22 Z M 5.609375 -22 "/></g></g></g><g fill="#000000" fill-opacity="1"><g transform="translate(566.347203, 319.277075)"><g><path d="M 7.015625 -72.28125 C 7.015625 -73 7.375 -73.359375 8.09375 -73.359375 L 21.796875 -73.359375 C 22.515625 -73.359375 22.875 -73 22.875 -72.28125 L 22.875 -14.78125 C 22.875 -14.34375 23.085938 -14.125 23.515625 -14.125 L 55.875 -14.125 C 56.59375 -14.125 56.953125 -13.765625 56.953125 -13.046875 L 56.953125 -1.078125 C 56.953125 -0.359375 56.59375 0 55.875 0 L 8.09375 0 C 7.375 0 7.015625 -0.359375 7.015625 -1.078125 Z M 7.015625 -72.28125 "/></g></g></g><g fill="#000000" fill-opacity="1"><g transform="translate(660.168245, 319.277075)"><g><path d="M 7.015625 -72.28125 C 7.015625 -73 7.375 -73.359375 8.09375 -73.359375 L 21.796875 -73.359375 C 22.515625 -73.359375 22.875 -73 22.875 -72.28125 L 22.875 -1.078125 C 22.875 -0.359375 22.515625 0 21.796875 0 L 8.09375 0 C 7.375 0 7.015625 -0.359375 7.015625 -1.078125 Z M 7.015625 -72.28125 "/></g></g></g><g fill="#000000" fill-opacity="1"><g transform="translate(724.555566, 319.277075)"><g><path d="M 7.015625 -72.28125 C 7.015625 -73 7.375 -73.359375 8.09375 -73.359375 L 21.03125 -73.359375 C 21.820312 -73.359375 22.4375 -73 22.875 -72.28125 L 48.765625 -26.109375 L 49.296875 -26.109375 L 49.296875 -72.28125 C 49.296875 -73 49.65625 -73.359375 50.375 -73.359375 L 62.5625 -73.359375 C 63.28125 -73.359375 63.640625 -73 63.640625 -72.28125 L 63.640625 -1.078125 C 63.640625 -0.359375 63.28125 0 62.5625 0 L 49.734375 0 C 48.941406 0 48.328125 -0.359375 47.890625 -1.078125 L 21.90625 -47.140625 L 21.359375 -47.140625 L 21.359375 -1.078125 C 21.359375 -0.359375 21 0 20.28125 0 L 8.09375 0 C 7.375 0 7.015625 -0.359375 7.015625 -1.078125 Z M 7.015625 -72.28125 "/></g></g></g><g fill="#000000" fill-opacity="1"><g transform="translate(829.697341, 319.277075)"><g><path d="M 7.015625 -72.28125 C 7.015625 -73 7.375 -73.359375 8.09375 -73.359375 L 21.796875 -73.359375 C 22.515625 -73.359375 22.875 -73 22.875 -72.28125 L 22.875 -40.5625 L 47.25 -72.390625 C 47.675781 -73.035156 48.285156 -73.359375 49.078125 -73.359375 L 64.71875 -73.359375 C 65.082031 -73.359375 65.316406 -73.210938 65.421875 -72.921875 C 65.535156 -72.628906 65.445312 -72.304688 65.15625 -71.953125 L 42.9375 -44.125 L 67.203125 -1.296875 C 67.710938 -0.429688 67.5 0 66.5625 0 L 50.703125 0 C 49.984375 0 49.441406 -0.320312 49.078125 -0.96875 L 32.46875 -31.828125 L 22.875 -19.734375 L 22.875 -1.078125 C 22.875 -0.359375 22.515625 0 21.796875 0 L 8.09375 0 C 7.375 0 7.015625 -0.359375 7.015625 -1.078125 Z M 7.015625 -72.28125 "/></g></g></g></g></g></g></g></g></g></mask><clipPath id="5fe19d9f18"><path d="M 7.363281 20.742188 L 1147.175781 20.742188 L 1147.175781 563.535156 L 7.363281 563.535156 Z M 7.363281 20.742188 " clip-rule="nonzero"/></clipPath><clipPath id="c0e2199b75"><rect x="0" width="1154" y="0" height="584"/></clipPath><clipPath id="f842de4177"><rect x="0" width="1154" y="0" height="584"/></clipPath><clipPath id="6207d89a8b"><rect x="0" width="1161" y="0" height="584"/></clipPath><clipPath id="addbf6e2a5"><rect x="0" width="1500" y="0" height="1167"/></clipPath></defs><rect x="-150" width="1800" fill="#ffffff" y="-149.999993" height="1799.99992" fill-opacity="1"/><rect x="-150" width="1800" fill="#f4f6fc" y="-149.999993" height="1799.99992" fill-opacity="1"/><g transform="matrix(1, 0, 0, 1, 0, 333)"><g clip-path="url(#addbf6e2a5)"><g clip-path="url(#8b32104ccc)"><path fill="#2196f3" d="M 1066.347656 208.210938 C 1058.265625 208.210938 1051.710938 201.65625 1051.710938 193.574219 C 1051.710938 185.488281 1058.265625 178.933594 1066.347656 178.933594 C 1074.433594 178.933594 1080.988281 185.488281 1080.988281 193.574219 C 1080.988281 201.65625 1074.433594 208.210938 1066.347656 208.210938 Z M 918.042969 183.285156 C 903.519531 103.871094 833.972656 43.683594 750.363281 43.683594 C 666.757812 43.683594 597.210938 103.871094 582.6875 183.285156 L 563.050781 183.285156 C 577.792969 93.136719 656.042969 24.335938 750.363281 24.335938 C 844.683594 24.335938 922.9375 93.136719 937.675781 183.285156 Z M 720.972656 178.933594 C 729.054688 178.933594 735.609375 185.488281 735.609375 193.574219 C 735.609375 201.65625 729.054688 208.210938 720.972656 208.210938 C 712.886719 208.210938 706.335938 201.65625 706.335938 193.574219 C 706.335938 185.488281 712.886719 178.933594 720.972656 178.933594 Z M 1066.347656 164.179688 C 1053.734375 164.179688 1042.984375 172.128906 1038.808594 183.285156 L 961.246094 183.285156 C 946.292969 80.21875 857.578125 1.039062 750.363281 1.039062 C 643.152344 1.039062 554.433594 80.21875 539.480469 183.285156 L 480.09375 183.285156 L 480.09375 203.859375 L 693.433594 203.859375 C 697.601562 215.019531 708.359375 222.96875 720.972656 222.96875 C 737.207031 222.96875 750.363281 209.808594 750.363281 193.574219 C 750.363281 177.339844 737.207031 164.179688 720.972656 164.179688 C 708.359375 164.179688 697.601562 172.128906 693.433594 183.285156 L 604.921875 183.285156 C 619.128906 115.988281 678.839844 65.476562 750.363281 65.476562 C 821.886719 65.476562 881.605469 115.988281 895.8125 183.285156 L 831.195312 183.285156 L 831.195312 203.859375 L 1038.808594 203.859375 C 1042.984375 215.019531 1053.734375 222.96875 1066.347656 222.96875 C 1082.578125 222.96875 1095.742188 209.808594 1095.742188 193.574219 C 1095.742188 177.339844 1082.578125 164.179688 1066.347656 164.179688 " fill-opacity="1" fill-rule="nonzero"/></g><g clip-path="url(#0a0a8302a0)"><path fill="#050a30" d="M 750.363281 403.957031 C 655.53125 403.957031 576.945312 334.414062 562.816406 243.546875 L 582.433594 243.546875 C 596.367188 323.679688 666.242188 384.617188 750.363281 384.617188 C 834.484375 384.617188 904.359375 323.679688 918.292969 243.546875 L 937.910156 243.546875 C 923.785156 334.414062 845.199219 403.957031 750.363281 403.957031 Z M 433.644531 247.894531 C 425.5625 247.894531 419.007812 241.339844 419.007812 233.257812 C 419.007812 225.171875 425.5625 218.617188 433.644531 218.617188 C 441.730469 218.617188 448.285156 225.171875 448.285156 233.257812 C 448.285156 241.339844 441.730469 247.894531 433.644531 247.894531 Z M 779.757812 247.894531 C 771.671875 247.894531 765.117188 241.339844 765.117188 233.257812 C 765.117188 225.171875 771.671875 218.617188 779.757812 218.617188 C 787.84375 218.617188 794.394531 225.171875 794.394531 233.257812 C 794.394531 241.339844 787.84375 247.894531 779.757812 247.894531 Z M 939.96875 222.972656 L 807.296875 222.972656 C 803.125 211.808594 792.371094 203.863281 779.757812 203.863281 C 763.527344 203.863281 750.363281 217.023438 750.363281 233.257812 C 750.363281 249.492188 763.527344 262.648438 779.757812 262.648438 C 792.371094 262.648438 803.125 254.703125 807.296875 243.546875 L 896.109375 243.546875 C 882.460938 311.570312 822.40625 362.816406 750.363281 362.816406 C 678.320312 362.816406 618.265625 311.570312 604.621094 243.546875 L 670.265625 243.546875 L 670.265625 222.972656 L 461.183594 222.972656 C 457.015625 211.808594 446.261719 203.863281 433.644531 203.863281 C 417.414062 203.863281 404.25 217.023438 404.25 233.257812 C 404.25 249.492188 417.414062 262.648438 433.644531 262.648438 C 446.261719 262.648438 457.015625 254.703125 461.183594 243.546875 L 539.269531 243.546875 C 553.589844 347.328125 642.640625 427.25 750.363281 427.25 C 858.085938 427.25 947.132812 347.328125 961.457031 243.546875 L 1016.53125 243.546875 L 1016.53125 222.972656 L 939.96875 222.972656 " fill-opacity="1" fill-rule="nonzero"/></g><path stroke-linecap="butt" transform="matrix(1.257041, 0, 0, 1.257041, 180.882644, 752.549406)" fill="none" stroke-linejoin="miter" d="M 0.00013391 4.00044 L 165.88755 4.00044 " stroke="#050a30" stroke-width="8" stroke-opacity="1" stroke-miterlimit="4"/><path stroke-linecap="butt" transform="matrix(1.257041, 0, 0, 1.257041, 1110.590794, 752.549406)" fill="none" stroke-linejoin="miter" d="M -0.000755696 4.00044 L 165.88666 4.00044 " stroke="#050a30" stroke-width="8" stroke-opacity="1" stroke-miterlimit="4"/><g transform="matrix(1, 0, 0, 1, 0, 6)"><g clip-path="url(#523164b306)"><g clip-path="url(#d20e844f1b)"><g transform="matrix(1, 0, 0, 1, 0, 0.000000000000113687)"><g clip-path="url(#47f542080f)"><g clip-path="url(#8e3f0cf1cc)"><g mask="url(#079b0db886)"><g transform="matrix(1, 0, 0, 1, 0, 0.000000000000113687)"><g clip-path="url(#1719f878bd)"><g clip-path="url(#a80ddaf9fb)"><path fill="url(#a99177bb7f)" d="M 0 40.746094 L 0 1161 L 1500 1161 L 1500 40.746094 Z M 0 40.746094 " fill-rule="nonzero"/></g></g></g></g></g></g></g></g></g></g><g transform="matrix(1, 0, 0, 1, 189, 477)"><g clip-path="url(#6207d89a8b)"><g clip-path="url(#89b43996df)"><g transform="matrix(1, 0, 0, 1, 0, 0.000000000000113687)"><g clip-path="url(#f842de4177)"><g clip-path="url(#7ec5a8f1b6)"><g mask="url(#4d94d0df90)"><g transform="matrix(1, 0, 0, 1, 0, 0.000000000000113687)"><g clip-path="url(#c0e2199b75)"><g clip-path="url(#5fe19d9f18)"><path fill="url(#ee9d9e90a8)" d="M 7.363281 20.742188 L 7.363281 563.535156 L 1147.175781 563.535156 L 1147.175781 20.742188 Z M 7.363281 20.742188 " fill-rule="nonzero"/></g></g></g></g></g></g></g></g></g></g></g></g></svg>